<svg xmlns="http://www.w3.org/2000/svg" xmlns:xlink="http://www.w3.org/1999/xlink" viewBox="2 -194.9 162.3 15.8">
  <defs>
    <style>
      .cls-1 {
        clip-path: url(#clip-path);
      }
    </style>
    <clipPath id="clip-path">
      <rect id="Rectangle_33" data-name="Rectangle 33" width="162.3" height="15.8" transform="translate(79.9 944.1)"/>
    </clipPath>
  </defs>
  <g id="Group_47" data-name="Group 47" transform="translate(-77.9 -1139)">
    <g id="Group_46" data-name="Group 46">
      <g id="Group_45" data-name="Group 45" class="cls-1">
        <g id="Group_25" data-name="Group 25" class="cls-1">
          <path id="Path_18" data-name="Path 18" d="M79.9,956.3V944.9h2.8a5.809,5.809,0,0,1,3.2.8c1.3.8,2.2,2.4,2.2,4.8,0,3.6-1.9,5.8-5.7,5.8Zm2.6-1.4c2.5,0,3.6-1.7,3.6-4.4,0-2.5-1-4.2-3.6-4.2h-.8v8.6h.8Z"/>
        </g>
        <g id="Group_26" data-name="Group 26" class="cls-1">
          <path id="Path_19" data-name="Path 19" d="M95.1,955.9a6.659,6.659,0,0,1-2.4.5c-2.5,0-3.7-1.8-3.7-4.2,0-2.6,1.3-4.4,3.4-4.4,1.8,0,3.2,1.3,3.2,4.2v.6H90.8c0,1.7.6,2.6,2.2,2.6a2.916,2.916,0,0,0,2.1-.7Zm-1.2-4.4q0-2.4-1.5-2.4c-1,0-1.6.9-1.6,2.4Z"/>
        </g>
        <g id="Group_27" data-name="Group 27" class="cls-1">
          <path id="Path_20" data-name="Path 20" d="M101.6,956.3c0-.2-.1-1-.1-1.3h-.1a2.251,2.251,0,0,1-2.2,1.4c-1.7,0-2.5-1.1-2.5-2.9V948h1.7v5.2c0,1.3.4,1.9,1.3,1.9,1.1,0,1.5-.9,1.5-2.2V948h1.7v6.7c0,.6.1,1.1.1,1.6Z"/>
        </g>
        <g id="Group_28" data-name="Group 28" class="cls-1">
          <path id="Path_21" data-name="Path 21" d="M109,956.2a3.918,3.918,0,0,1-1.3.2c-1.4,0-2.1-.6-2.1-2.2v-5h-1.3V948h1.3v-1.7l1.7-.5V948H109v1.3h-1.7v4.6c0,.9.3,1.2.9,1.2a1.883,1.883,0,0,0,.8-.2Z"/>
        </g>
        <g id="Group_29" data-name="Group 29" class="cls-1">
          <path id="Path_22" data-name="Path 22" d="M110.3,954.6a5.249,5.249,0,0,0,2,.6c.9,0,1.4-.3,1.4-1,0-.5-.2-.8-1-1.2l-.9-.5c-1-.5-1.7-1.1-1.7-2.2a2.546,2.546,0,0,1,2.8-2.4,6.128,6.128,0,0,1,1.9.3l-.1,1.4a4.309,4.309,0,0,0-1.7-.3c-.9,0-1.3.4-1.3,1s.5.9,1.2,1.3l.7.4c1,.6,1.6,1.1,1.6,2.1,0,1.5-1,2.5-2.9,2.5a4.617,4.617,0,0,1-2.3-.5Z"/>
        </g>
        <g id="Group_30" data-name="Group 30" class="cls-1">
          <path id="Path_23" data-name="Path 23" d="M122.1,956.1a5.04,5.04,0,0,1-1.9.3c-2.6,0-3.8-1.9-3.8-4.3,0-2.6,1.3-4.4,3.9-4.4a7.437,7.437,0,0,1,1.7.3l-.1,1.4a3.313,3.313,0,0,0-1.5-.4c-1.4,0-2.2,1-2.2,3,0,1.8.9,2.9,2.3,2.9a2.982,2.982,0,0,0,1.5-.4Z"/>
        </g>
        <g id="Group_31" data-name="Group 31" class="cls-1">
          <path id="Path_24" data-name="Path 24" d="M128.1,956.3v-5.2c0-1.3-.4-1.9-1.3-1.9-1.1,0-1.6.8-1.6,2.1v5h-1.7V944.1h1.7v5h.1a2.159,2.159,0,0,1,2.1-1.2c1.7,0,2.5,1.1,2.5,2.9v5.6l-1.8-.1Z"/>
        </g>
        <g id="Group_32" data-name="Group 32" class="cls-1">
          <path id="Path_25" data-name="Path 25" d="M137.2,955.9a6.659,6.659,0,0,1-2.4.5c-2.5,0-3.6-1.8-3.6-4.2,0-2.6,1.3-4.4,3.4-4.4,1.8,0,3.2,1.3,3.2,4.2v.6H133c0,1.7.6,2.6,2.2,2.6a2.916,2.916,0,0,0,2.1-.7l-.1,1.4Zm-1.2-4.4q0-2.4-1.5-2.4c-1,0-1.6.9-1.6,2.4Z"/>
        </g>
        <g id="Group_33" data-name="Group 33" class="cls-1">
          <path id="Path_26" data-name="Path 26" d="M142.6,956.3V944.9h3a3.738,3.738,0,0,1,2.6.9,3.327,3.327,0,0,1,.9,2.5c0,2.2-1.3,3.4-3.7,3.4h-1.1v4.6Zm2.6-6c1.5,0,2.1-.7,2.1-2,0-1.4-.7-2-2.1-2h-.8v4Z"/>
        </g>
        <g id="Group_34" data-name="Group 34" class="cls-1">
          <path id="Path_27" data-name="Path 27" d="M149.7,952.1c0-3,1.5-4.3,3.6-4.3,1.9,0,3.6,1.3,3.6,4.3,0,3.1-1.5,4.3-3.6,4.3s-3.6-1.2-3.6-4.3m5.2,0c0-1.8-.5-3-1.8-3s-1.8,1.3-1.8,3c0,1.8.5,3,1.8,3,1.4.1,1.8-1.2,1.8-3"/>
        </g>
        <g id="Group_35" data-name="Group 35" class="cls-1">
          <path id="Path_28" data-name="Path 28" d="M157.9,954.6a5.249,5.249,0,0,0,2,.6c.9,0,1.4-.3,1.4-1,0-.5-.2-.8-1-1.2l-.9-.5c-1-.5-1.7-1.1-1.7-2.2a2.546,2.546,0,0,1,2.8-2.4,6.128,6.128,0,0,1,1.9.3l-.1,1.4a4.309,4.309,0,0,0-1.7-.3c-.9,0-1.3.4-1.3,1s.5.9,1.2,1.3l.7.4c1,.6,1.6,1.1,1.6,2.1,0,1.5-1,2.5-2.9,2.5a4.617,4.617,0,0,1-2.3-.5Z"/>
        </g>
        <g id="Group_36" data-name="Group 36" class="cls-1">
          <path id="Path_29" data-name="Path 29" d="M168.5,956.2a3.918,3.918,0,0,1-1.3.2c-1.4,0-2.1-.6-2.1-2.2v-5h-1.3V948h1.3v-1.7l1.7-.5V948h1.7v1.3h-1.7v4.6c0,.9.3,1.2.9,1.2a1.883,1.883,0,0,0,.8-.2v1.3Z"/>
        </g>
        <g id="Group_37" data-name="Group 37" class="cls-1">
          <path id="Path_30" data-name="Path 30" d="M175,956.3V944.9h2.8a5.809,5.809,0,0,1,3.2.8c1.3.8,2.2,2.4,2.2,4.8,0,3.6-1.9,5.8-5.7,5.8Zm2.5-1.4c2.5,0,3.6-1.7,3.6-4.4,0-2.5-1-4.2-3.6-4.2h-.8v8.6h.8Z"/>
        </g>
        <g id="Group_38" data-name="Group 38" class="cls-1">
          <path id="Path_31" data-name="Path 31" d="M190,956.3v-5.1h-3.6v5.1h-1.8V944.9h1.8v4.8H190v-4.8h1.8v11.4Z"/>
        </g>
        <g id="Group_39" data-name="Group 39" class="cls-1">
          <path id="Path_32" data-name="Path 32" d="M193.9,956.3V944.9h1.8v10h3.7v1.4Z"/>
        </g>
        <g id="Group_40" data-name="Group 40" class="cls-1">
          <path id="Path_33" data-name="Path 33" d="M210.3,951.4h-1.8V950H212v5.9a7.145,7.145,0,0,1-3,.6c-3.6,0-5.4-2.6-5.4-5.8,0-3.5,2-5.8,5.3-5.8a7.385,7.385,0,0,1,2.8.5l-.1,1.7a5.593,5.593,0,0,0-2.6-.7c-2.1,0-3.5,1.7-3.5,4.2,0,2.8,1.1,4.5,3.5,4.5a2.5,2.5,0,0,0,1.3-.3v-3.4Z"/>
        </g>
        <g id="Group_41" data-name="Group 41" class="cls-1">
          <path id="Path_34" data-name="Path 34" d="M214,956.3v-6.8c0-.6-.1-1.1-.1-1.6h1.5c0,.2.1,1.1.1,1.4h.1a2.118,2.118,0,0,1,2.2-1.5h.2v1.7a.9.9,0,0,0-.5-.1c-1,0-1.8.7-1.8,2.4v4.5Z"/>
        </g>
        <g id="Group_42" data-name="Group 42" class="cls-1">
          <path id="Path_35" data-name="Path 35" d="M218.8,952.1c0-3,1.5-4.3,3.6-4.3,1.9,0,3.6,1.3,3.6,4.3,0,3.1-1.5,4.3-3.6,4.3-2,0-3.6-1.2-3.6-4.3m5.3,0c0-1.8-.5-3-1.8-3s-1.8,1.3-1.8,3c0,1.8.5,3,1.8,3s1.8-1.2,1.8-3"/>
        </g>
        <g id="Group_43" data-name="Group 43" class="cls-1">
          <path id="Path_36" data-name="Path 36" d="M232,956.3c0-.2-.1-1-.1-1.3h-.1a2.251,2.251,0,0,1-2.2,1.4c-1.7,0-2.5-1.1-2.5-2.9V948h1.7v5.2c0,1.3.4,1.9,1.3,1.9,1.1,0,1.5-.9,1.5-2.2V948h1.7v6.7c0,.6.1,1.1.1,1.6Z"/>
        </g>
        <g id="Group_44" data-name="Group 44" class="cls-1">
          <path id="Path_37" data-name="Path 37" d="M235.4,959.9V949.5c0-.6-.1-1.1-.1-1.5h1.6c0,.1.1,1,.1,1.3h.1a2.291,2.291,0,0,1,2.2-1.4c1.9,0,2.9,1.7,2.9,4.3,0,2.8-1.1,4.3-2.9,4.3a2.131,2.131,0,0,1-2.1-1.3h-.1V960h-1.7Zm5.1-7.7c0-2-.4-3-1.7-3-1.2,0-1.7,1.2-1.7,3,0,1.9.5,3,1.7,3s1.7-1.1,1.7-3"/>
        </g>
      </g>
    </g>
  </g>
</svg>
